<!DOCTYPE svg PUBLIC "-//W3C//DTD SVG 1.1//EN" "http://www.w3.org/Graphics/SVG/1.1/DTD/svg11.dtd">
<!-- Uploaded to: SVG Repo, www.svgrepo.com, Transformed by: SVG Repo Mixer Tools -->
<svg version="1.1" id="_x32_" xmlns="http://www.w3.org/2000/svg" xmlns:xlink="http://www.w3.org/1999/xlink" width="800px" height="800px" viewBox="-76.8 -76.8 665.60 665.60" xml:space="preserve" fill="#3459e6">
<g id="SVGRepo_bgCarrier" stroke-width="0" transform="translate(0,0), scale(1)">
<rect x="-76.8" y="-76.8" width="665.60" height="665.60" rx="332.8" fill="#ffffff" strokewidth="0"/>
</g>
<g id="SVGRepo_tracerCarrier" stroke-linecap="round" stroke-linejoin="round" stroke="#CCCCCC" stroke-width="1.024"/>
<g id="SVGRepo_iconCarrier"> <style type="text/css">  .st0{fill:#3459e6;}  </style> <g> <path class="st0" d="M484.516,19.531l-48.297,69.797l47.984,69.344h-54.266l-47.969-69.344l49.813-72h-68.625l-49.813,72 l47.969,69.344h-54.25l-47.969-69.344l49.797-72H240.25l-49.813,72l47.984,69.344h-54.266l-47.969-69.344l49.813-72h-68.625 l-49.813,72l47.969,69.344h-54.25L13.313,89.328l49.813-72H40c-22.094,0-40,17.906-40,40v397.344c0,22.094,17.906,40,40,40h432 c22.094,0,40-17.906,40-40V57.328C512,39.625,500.438,24.797,484.516,19.531z M480,454.672c0,4.422-3.594,8-8,8H40 c-4.406,0-8-3.578-8-8v-264h448V454.672z"/> <path class="st0" d="M215.688,393.156c0.75,0.438,1.672,0.406,2.406-0.031l101.75-60.719c0.719-0.438,1.156-1.219,1.156-2.063 c0-0.813-0.438-1.609-1.156-2.031l-101.75-60.734c-0.734-0.422-1.656-0.453-2.406-0.031c-0.719,0.422-1.188,1.234-1.188,2.078 v60.719v60.734C214.5,391.953,214.969,392.75,215.688,393.156z"/> </g> </g>
</svg>